<svg xmlns="http://www.w3.org/2000/svg" viewBox="0 0 600 400" width="600" height="400">
  <defs><pattern id="d" width="16" height="16" patternUnits="userSpaceOnUse"><circle cx="8" cy="8" r="1.5" fill="rgba(30,28,20,.13)"/></pattern></defs>
  <rect width="600" height="400" fill="#FBFAEC"/><rect width="600" height="400" fill="url(#d)"/>

  <g stroke="#1E1C14" stroke-width="3" fill="#FFFEF7">
    <rect x="42" y="40" width="228" height="320" rx="6"/>
    <rect x="300" y="40" width="258" height="320" rx="6"/>
  </g>
  <!-- コマ -->
  <g stroke="#E4586A" stroke-width="3.4" fill="none" stroke-linejoin="round">
    <path d="M58 56 h196 v92 h-196 Z"/>
    <path d="M58 160 h92 v88 h-92 Z"/>
    <path d="M162 160 h92 v88 h-92 Z"/>
    <path d="M58 260 h196 v84 h-196 Z"/>
    <path d="M316 56 h226 v130 h-226 Z"/>
    <path d="M316 198 h106 v146 h-106 Z"/>
    <path d="M434 198 h108 v146 h-108 Z"/>
  </g>

  <!-- ミニキャラ素体 -->
  <g fill="#FFFEF7" stroke="#1E1C14" stroke-width="3" stroke-linejoin="round" stroke-linecap="round">
    <g transform="translate(104 232) scale(.72)">
      <path d="M-16 8 L-30 -14 M16 8 L30 -14"/>
      <path d="M-17 6 C-25 22 -23 44 -10 45 L10 45 C23 44 25 22 17 6 Z"/>
      <circle cx="0" cy="-16" r="30"/>
    </g>
    <g transform="translate(208 236) scale(.66)">
      <path d="M-16 6 L-34 -6 M16 6 L34 -6"/>
      <path d="M-17 6 C-25 22 -23 44 -10 45 L10 45 C23 44 25 22 17 6 Z"/>
      <circle cx="0" cy="-16" r="30"/>
    </g>
    <g transform="translate(370 300) scale(.78)">
      <path d="M-16 6 L-32 -18 M16 6 L32 -18"/>
      <path d="M-17 6 C-25 22 -23 44 -10 45 L10 45 C23 44 25 22 17 6 Z"/>
      <circle cx="0" cy="-16" r="30"/>
    </g>
  </g>
  <!-- かお -->
  <g fill="#1E1C14">
    <g transform="translate(104 216) scale(.72)">
      <ellipse cx="-11" cy="-2" rx="5" ry="6.5"/><ellipse cx="11" cy="-2" rx="5" ry="6.5"/>
      <path d="M-5 9 Q0 15 5 9" fill="none" stroke="#1E1C14" stroke-width="2.6" stroke-linecap="round"/>
    </g>
    <g transform="translate(208 222) scale(.66)">
      <path d="M-16 0 Q-11 -8 -6 0 M6 0 Q11 -8 16 0" fill="none" stroke="#1E1C14" stroke-width="3" stroke-linecap="round"/>
      <ellipse cx="0" cy="11" rx="5" ry="6"/>
    </g>
    <g transform="translate(370 282) scale(.78)">
      <ellipse cx="-11" cy="-2" rx="5.5" ry="7"/><ellipse cx="11" cy="-2" rx="5.5" ry="7"/>
      <path d="M-5 12 Q0 6 5 12" fill="none" stroke="#1E1C14" stroke-width="2.6" stroke-linecap="round"/>
    </g>
  </g>

  <!-- フキダシ -->
  <g fill="#FFFEF7" stroke="#1E1C14" stroke-width="2.6">
    <ellipse cx="212" cy="96" rx="30" ry="24"/>
    <path d="M198 114 L190 132 L212 118 Z"/>
    <ellipse cx="496" cy="98" rx="34" ry="26"/>
    <path d="M480 118 L470 138 L496 122 Z"/>
  </g>
  <g stroke="#1E1C14" stroke-width="2.4" opacity=".35">
    <path d="M200 88 h24 M200 98 h24 M204 108 h16"/>
    <path d="M482 90 h28 M482 100 h28 M486 110 h20"/>
  </g>

  <!-- 番号 -->
  <g fill="#E1DD60" stroke="#1E1C14" stroke-width="2.4">
    <circle cx="246" cy="70" r="11"/><circle cx="534" cy="70" r="11"/>
  </g>
  <g font-family="DotGothic16,monospace" font-size="13" fill="#1E1C14" text-anchor="middle">
    <text x="246" y="75">1</text><text x="534" y="75">1</text>
  </g>
</svg>
